<?xml version="1.0" standalone="no"?>
<!DOCTYPE svg PUBLIC "-//W3C//DTD SVG 20010904//EN"
 "http://www.w3.org/TR/2001/REC-SVG-20010904/DTD/svg10.dtd">
<svg version="1.0" xmlns="http://www.w3.org/2000/svg"
 width="280.000000pt" height="280.000000pt" viewBox="0 0 280.000000 280.000000"
 preserveAspectRatio="xMidYMid meet">

<g transform="translate(0.000000,280.000000) scale(0.100000,-0.100000)"
fill="#000000" stroke="none">
<path d="M1388 2655 c-16 -21 -17 -36 -8 -142 5 -65 10 -130 10 -145 0 -31 29
-40 31 -10 0 9 2 28 4 42 1 14 5 72 9 130 6 92 4 108 -11 127 l-18 22 -17 -24z"/>
<path d="M1330 2592 l-22 -18 18 -117 c13 -88 21 -117 32 -117 13 0 14 19 8
132 -4 73 -9 134 -10 136 -2 1 -13 -6 -26 -16z"/>
<path d="M1457 2584 c-4 -16 -9 -77 -13 -136 -5 -92 -4 -108 9 -108 11 0 19
28 33 115 l18 116 -21 21 -21 20 -5 -28z"/>
<path d="M1266 2547 c-17 -12 -16 -17 4 -102 12 -50 27 -96 32 -102 8 -10 -3
-13 -52 -13 -53 0 -61 -2 -56 -16 3 -9 9 -27 12 -40 7 -29 19 -29 120 -7 72
16 82 16 158 0 108 -23 112 -22 125 14 16 46 15 49 -26 50 -21 1 -31 3 -23 5
10 3 24 36 38 87 27 98 27 93 2 100 -21 5 -19 11 -53 -125 -8 -31 -12 -59 -9
-62 3 -3 -44 -6 -105 -6 -83 0 -110 3 -109 13 2 21 -26 202 -33 210 -4 4 -15
1 -25 -6z"/>
<path d="M1520 2558 c0 -2 -7 -41 -15 -88 -18 -104 -19 -130 -2 -130 8 0 21
34 35 93 12 50 22 95 22 99 0 7 -40 32 -40 26z"/>
<path d="M1207 2518 c-15 -12 -15 -19 7 -93 19 -67 27 -81 45 -83 18 -3 22 0
17 15 -3 10 -13 50 -22 88 -20 82 -24 89 -47 73z"/>
<path d="M1130 2511 c0 -28 64 -171 76 -171 19 0 18 15 -9 95 -17 49 -29 70
-45 76 -12 5 -22 4 -22 0z"/>
<path d="M1658 2513 c-11 -3 -26 -32 -42 -81 -30 -90 -31 -92 -11 -92 9 0 20
12 26 28 45 116 57 152 51 151 -4 -1 -15 -3 -24 -6z"/>
<path d="M960 2450 c13 -8 13 -11 1 -22 -11 -11 -13 -11 -6 1 5 9 4 12 -3 7
-6 -3 -10 -15 -9 -26 1 -10 4 -17 8 -14 4 2 10 0 13 -5 3 -5 -3 -11 -14 -14
-11 -3 -20 -12 -20 -20 0 -10 7 -13 20 -10 13 4 20 0 20 -10 0 -29 -69 -38
-91 -11 -11 14 -10 18 5 29 18 13 15 35 -5 35 -5 0 -23 14 -39 30 -16 17 -34
30 -40 30 -13 0 -29 -40 -23 -57 7 -18 33 -24 33 -8 0 7 -8 16 -17 18 -13 4
-12 5 5 6 12 0 25 -6 29 -15 5 -13 7 -13 14 -2 7 10 9 10 9 0 0 -14 -47 -35
-60 -27 -8 5 -20 -17 -20 -36 0 -5 11 -9 25 -9 18 0 25 -5 25 -19 0 -21 -47
-64 -64 -58 -17 6 -18 27 -1 27 9 0 15 6 13 13 -7 18 -40 21 -50 3 -5 -8 -15
-13 -23 -10 -8 4 -15 1 -15 -6 0 -6 -5 -8 -11 -4 -8 5 -8 9 1 14 7 4 9 13 6
19 -4 6 -3 11 3 11 5 0 11 -5 13 -12 2 -6 9 -8 16 -4 6 3 9 13 6 21 -4 8 -10
12 -15 9 -5 -3 -9 0 -9 5 0 6 -5 11 -11 11 -5 0 -7 -4 -4 -10 3 -5 2 -10 -4
-10 -5 0 -12 6 -14 13 -3 6 -6 -4 -6 -23 -1 -19 -4 -45 -7 -58 -6 -19 -3 -23
12 -20 24 4 30 -25 9 -46 -26 -26 -54 -21 -52 10 2 21 -3 27 -23 30 -18 3 -21
2 -10 -5 8 -5 18 -7 22 -5 4 3 8 1 8 -5 0 -6 -12 -9 -27 -7 -16 2 -22 1 -15
-1 25 -9 11 -22 -18 -16 -25 4 -30 2 -31 -13 0 -13 -2 -15 -6 -5 -4 9 -10 3
-19 -18 -7 -17 -11 -37 -8 -45 6 -16 47 -36 72 -36 13 1 10 6 -10 21 -16 11
-28 27 -28 34 0 19 35 28 75 21 44 -9 81 10 100 50 14 31 20 34 60 34 36 0 47
5 69 31 14 17 26 35 26 40 0 6 8 6 19 -1 37 -19 81 -12 110 19 26 27 27 28 59
13 38 -19 85 -7 90 22 4 17 3 18 -19 2 -29 -20 -40 -20 -65 -2 -19 15 -19 15
1 30 20 14 20 15 -5 24 -20 7 -26 6 -32 -7 -5 -11 -7 -8 -7 11 -1 16 -9 32
-20 38 -24 13 -41 13 -21 0z m-150 -20 c0 -5 -4 -10 -10 -10 -5 0 -10 5 -10
10 0 6 5 10 10 10 6 0 10 -4 10 -10z m180 -31 c0 -6 -4 -7 -10 -4 -5 3 -10 11
-10 16 0 6 5 7 10 4 6 -3 10 -11 10 -16z"/>
<path d="M1831 2451 c-8 -5 -16 -20 -18 -32 -3 -19 -1 -21 9 -11 17 17 28 15
21 -5 -4 -11 -3 -14 5 -9 7 4 12 3 12 -3 0 -13 -53 -7 -58 8 -4 12 -34 15 -45
4 -4 -3 1 -12 10 -18 15 -11 15 -15 4 -29 -18 -22 -47 -20 -72 5 l-21 21 4
-23 c4 -34 48 -47 90 -27 32 15 33 14 61 -15 26 -28 31 -29 82 -23 48 5 54 4
60 -14 10 -31 50 -53 90 -48 30 3 36 0 46 -24 20 -49 55 -69 108 -62 31 4 52
1 63 -8 20 -15 15 -26 -22 -52 l-25 -18 34 6 c61 11 73 32 46 82 -8 16 -15 24
-15 17 0 -7 -9 -9 -22 -5 -21 5 -21 6 -2 14 14 6 10 7 -13 3 -18 -2 -33 0 -33
5 0 6 7 10 16 10 13 0 14 3 4 15 -7 8 -22 13 -34 11 -16 -3 -21 -10 -19 -30 2
-32 -25 -36 -52 -6 -22 25 -13 54 15 45 21 -7 28 9 9 20 -5 4 -9 17 -8 28 3
44 -1 63 -10 48 -7 -10 -10 -10 -13 -1 -3 9 -9 8 -21 -5 -10 -9 -29 -20 -44
-24 -15 -4 -29 -13 -31 -20 -3 -8 0 -11 7 -7 11 7 28 -20 18 -30 -11 -11 -48
8 -63 32 -13 19 -14 27 -4 39 10 12 16 13 27 3 13 -10 14 -8 11 12 -2 16 -13
27 -37 35 -19 6 -37 17 -39 23 -2 7 2 10 12 6 9 -3 16 -1 16 5 0 6 5 11 11 11
6 0 8 -8 5 -18 -4 -13 -1 -18 12 -18 14 0 18 7 17 26 -2 29 -12 50 -25 50 -4
0 -29 -20 -56 -45 -31 -29 -41 -45 -31 -45 22 0 22 -36 1 -44 -25 -10 -59 -7
-72 6 -20 20 -14 31 13 24 28 -7 30 -4 14 27 -7 12 -12 35 -13 51 -1 32 -13
41 -35 27z m193 -27 c9 -24 2 -26 -12 -4 -7 11 -8 20 -3 20 5 0 12 -7 15 -16z
m112 -129 c-3 -8 -1 -15 5 -15 6 0 7 -5 3 -11 -5 -8 -10 -6 -16 5 -5 9 -6 21
-3 26 10 15 18 12 11 -5z m-26 -11 c0 -8 -4 -12 -10 -9 -5 3 -10 10 -10 16 0
5 5 9 10 9 6 0 10 -7 10 -16z m105 -74 c3 -5 1 -10 -4 -10 -6 0 -11 5 -11 10
0 6 2 10 4 10 3 0 8 -4 11 -10z"/>
<path d="M1010 2305 c0 -8 5 -15 10 -15 6 0 10 7 10 15 0 8 -4 15 -10 15 -5 0
-10 -7 -10 -15z"/>
<path d="M1786 2313 c-11 -11 -6 -23 9 -23 8 0 15 4 15 9 0 13 -16 22 -24 14z"/>
<path d="M900 2215 c-129 -52 -233 -97 -230 -102 3 -4 10 -6 15 -5 6 2 7 0 2
-4 -8 -8 21 -44 36 -44 10 0 448 169 455 175 10 9 -11 45 -26 46 -11 0 -12 3
-4 6 6 2 12 9 12 14 0 16 -19 9 -260 -86z m220 55 c-8 -5 -19 -10 -25 -10 -5
0 -3 5 5 10 8 5 20 10 25 10 6 0 3 -5 -5 -10z m-130 -50 c-8 -5 -19 -10 -25
-10 -5 0 -3 5 5 10 8 5 20 10 25 10 6 0 3 -5 -5 -10z m-50 -20 c-8 -5 -19 -10
-25 -10 -5 0 -3 5 5 10 8 5 20 10 25 10 6 0 3 -5 -5 -10z"/>
<path d="M1650 2302 c0 -5 12 -13 28 -19 l27 -11 -31 5 c-26 4 -32 1 -37 -18
-3 -13 -5 -24 -4 -25 8 -5 449 -174 456 -174 14 0 42 36 34 44 -5 4 -3 6 2 4
6 -1 11 2 12 7 1 9 -455 195 -478 195 -5 0 -9 -4 -9 -8z m90 -42 c8 -5 11 -10
5 -10 -5 0 -17 5 -25 10 -8 5 -10 10 -5 10 6 0 17 -5 25 -10z m50 -20 c8 -5
11 -10 5 -10 -5 0 -17 5 -25 10 -8 5 -10 10 -5 10 6 0 17 -5 25 -10z m50 -20
c8 -5 11 -10 5 -10 -5 0 -17 5 -25 10 -8 5 -10 10 -5 10 6 0 17 -5 25 -10z
m130 -50 c8 -5 11 -10 5 -10 -5 0 -17 5 -25 10 -8 5 -10 10 -5 10 6 0 17 -5
25 -10z"/>
<path d="M862 2249 c2 -6 8 -10 13 -10 5 0 11 4 13 10 2 6 -4 11 -13 11 -9 0
-15 -5 -13 -11z"/>
<path d="M1922 2249 c2 -6 8 -10 13 -10 5 0 11 4 13 10 2 6 -4 11 -13 11 -9 0
-15 -5 -13 -11z"/>
<path d="M1195 2179 c-110 -38 -251 -88 -314 -111 l-114 -41 7 -101 c13 -191
65 -440 126 -607 38 -105 88 -193 170 -304 66 -88 257 -283 313 -319 l27 -18
58 48 c195 164 361 380 438 572 60 149 134 519 134 669 l0 62 -57 21 c-91 35
-574 200 -581 199 -4 0 -97 -32 -207 -70z m728 -139 l87 -32 0 -56 c-1 -198
-98 -599 -182 -752 -78 -141 -235 -329 -369 -441 -49 -41 -49 -41 -77 -24 -15
10 -79 70 -142 134 -127 128 -220 256 -281 385 -69 148 -140 454 -156 667 l-6
86 49 18 c27 9 163 57 303 105 l255 87 215 -72 c119 -40 255 -87 304 -105z"/>
<path d="M1119 2096 c-146 -51 -272 -96 -279 -101 -38 -23 46 -494 121 -678
61 -152 210 -348 362 -477 l81 -69 30 21 c58 40 251 243 304 320 95 139 154
287 197 494 23 114 45 271 45 332 0 52 -1 53 -37 69 -73 30 -524 183 -541 182
-9 0 -137 -42 -283 -93z m562 -21 c150 -52 275 -95 278 -95 9 0 -12 -181 -35
-305 -48 -262 -110 -420 -225 -576 -61 -83 -209 -237 -268 -278 l-30 -22 -112
108 c-191 184 -286 333 -348 541 -32 107 -65 269 -75 362 -3 30 -8 80 -11 111
l-6 55 178 62 c98 34 221 77 273 96 52 18 98 34 101 35 3 0 129 -42 280 -94z"/>
<path d="M1350 1990 l-35 -30 40 2 c30 2 41 8 43 22 7 34 -13 37 -48 6z"/>
<path d="M1420 1990 c0 -29 2 -30 43 -30 l42 0 -25 21 c-52 41 -60 43 -60 9z"/>
<path d="M1260 1985 l-45 -24 36 -1 c28 0 40 6 53 25 20 31 13 31 -44 0z"/>
<path d="M1510 1985 c15 -16 34 -25 54 -25 31 1 31 1 -14 25 -58 31 -69 31
-40 0z"/>
<path d="M1165 1975 c-23 -11 -25 -14 -10 -14 11 0 29 6 39 14 24 18 11 18
-29 0z"/>
<path d="M1621 1974 c9 -9 25 -14 35 -12 14 3 10 7 -16 16 -32 12 -34 11 -19
-4z"/>
<path d="M1042 1885 l-57 -55 46 0 c45 0 48 2 78 48 37 58 37 62 10 62 -12 0
-46 -24 -77 -55z"/>
<path d="M1182 1934 c-12 -6 -72 -87 -72 -98 0 -3 27 -6 61 -6 58 0 60 1 74
33 26 62 24 72 -15 74 -19 1 -41 0 -48 -3z"/>
<path d="M1287 1913 c-8 -16 -17 -41 -21 -56 l-7 -28 68 3 68 3 3 38 c4 50
-11 67 -59 67 -32 0 -41 -5 -52 -27z"/>
<path d="M1427 1934 c-4 -4 -7 -29 -7 -56 l0 -48 66 0 66 0 -7 28 c-15 62 -28
77 -70 80 -23 2 -44 0 -48 -4z"/>
<path d="M1553 1913 c15 -77 22 -83 87 -83 33 0 60 3 60 6 0 14 -43 75 -63 89
-12 8 -37 15 -55 15 -32 0 -34 -2 -29 -27z"/>
<path d="M1678 1935 c-3 -4 8 -29 24 -56 29 -47 33 -49 74 -49 24 0 44 4 44 8
0 4 -19 26 -42 49 -41 40 -86 61 -100 48z"/>
<path d="M966 1798 c-2 -7 -9 -28 -15 -47 -14 -44 -8 -51 44 -51 49 0 61 12
66 70 l4 35 -48 3 c-32 2 -48 -1 -51 -10z"/>
<path d="M1091 1787 c-5 -13 -11 -36 -13 -53 l-3 -29 64 -3 c35 -2 68 1 72 5
5 5 12 30 15 56 l7 47 -67 0 c-60 0 -67 -2 -75 -23z"/>
<path d="M1257 1803 c-3 -4 -7 -28 -8 -53 l-4 -45 75 0 75 0 0 50 0 50 -67 3
c-36 2 -68 -1 -71 -5z"/>
<path d="M1422 1758 l3 -53 64 -3 c35 -2 68 1 73 6 5 5 6 30 3 56 l-7 46 -70
0 -69 0 3 -52z"/>
<path d="M1586 1801 c-3 -4 -2 -28 2 -52 l7 -44 64 -3 c35 -2 68 1 73 6 5 5 4
28 -3 56 l-11 46 -64 0 c-34 0 -65 -4 -68 -9z"/>
<path d="M1750 1781 c0 -16 4 -41 10 -55 8 -23 15 -26 55 -26 54 0 61 11 42
65 -13 38 -16 40 -60 43 -46 3 -47 3 -47 -27z"/>
<path d="M943 1666 c3 -8 9 -31 13 -50 l6 -36 55 0 c47 0 54 2 49 18 -2 9 -7
32 -11 50 -6 31 -8 32 -62 32 -44 0 -54 -3 -50 -14z"/>
<path d="M1074 1663 c2 -10 7 -33 11 -50 l7 -33 69 0 c76 0 76 1 63 69 l-6 31
-75 0 c-66 0 -74 -2 -69 -17z"/>
<path d="M1244 1665 c3 -9 6 -32 6 -51 l0 -35 73 3 72 3 0 45 0 45 -79 3 c-69
3 -78 1 -72 -13z"/>
<path d="M1420 1630 l0 -50 69 0 68 0 7 38 c10 64 12 62 -69 62 l-75 0 0 -50z"/>
<path d="M1590 1653 c0 -16 -3 -38 -6 -50 -6 -22 -4 -23 65 -23 77 0 75 -1 86
63 l6 37 -76 0 -75 0 0 -27z"/>
<path d="M1756 1649 c-13 -65 -10 -69 43 -69 l49 0 11 44 c6 25 11 47 11 50 0
3 -24 6 -54 6 -52 0 -54 -1 -60 -31z"/>
<path d="M990 1552 c0 -4 22 -29 48 -55 33 -33 56 -47 75 -47 15 0 27 3 27 8
0 4 -16 28 -35 55 -32 42 -39 47 -75 47 -22 0 -40 -4 -40 -8z"/>
<path d="M1110 1549 c0 -6 14 -30 30 -55 29 -41 34 -44 75 -44 51 0 56 13 31
75 -15 34 -16 35 -75 35 -37 0 -61 -4 -61 -11z"/>
<path d="M1260 1546 c0 -9 7 -34 16 -56 l17 -41 51 3 51 3 0 50 0 50 -67 3
c-56 2 -68 0 -68 -12z"/>
<path d="M1420 1505 l0 -55 50 0 c54 0 62 9 77 83 l6 27 -67 0 -66 0 0 -55z"/>
<path d="M1569 1533 c-6 -16 -13 -40 -16 -55 -5 -27 -4 -28 40 -28 42 0 47 3
80 47 19 26 33 51 31 55 -3 5 -32 8 -65 8 -56 0 -60 -2 -70 -27z"/>
<path d="M1710 1516 c-37 -55 -38 -66 -2 -66 20 0 41 13 75 48 26 27 44 51 41
55 -4 4 -24 7 -45 7 -34 0 -42 -5 -69 -44z"/>
<path d="M1160 1410 c45 -25 61 -25 31 0 -13 11 -33 20 -45 20 -17 -1 -14 -4
14 -20z"/>
<path d="M1216 1421 c15 -14 104 -50 104 -42 0 20 -49 51 -80 51 -20 0 -30 -4
-24 -9z"/>
<path d="M1344 1395 c42 -37 60 -35 54 6 -3 21 -9 24 -48 27 l-45 2 39 -35z"/>
<path d="M1420 1395 c0 -39 8 -38 58 4 31 27 28 31 -18 31 -39 0 -40 -1 -40
-35z"/>
<path d="M1511 1403 c-12 -14 -19 -28 -17 -30 2 -2 30 9 62 26 l59 30 -42 1
c-33 0 -46 -5 -62 -27z"/>
<path d="M1620 1410 c-31 -24 -17 -24 35 0 35 16 37 19 15 19 -14 0 -36 -8
-50 -19z"/>
<path d="M1290 1204 c-74 -155 -73 -154 -52 -154 14 0 29 21 55 80 20 44 38
80 41 80 2 0 19 -26 36 -57 43 -78 57 -92 96 -99 43 -8 79 1 104 26 39 39 17
55 -27 20 -57 -45 -94 -21 -162 104 l-49 89 -42 -89z"/>
<path d="M1443 1254 c-36 -18 -49 -45 -34 -71 6 -10 11 -12 11 -5 1 42 92 71
120 37 13 -16 50 -21 50 -7 0 5 -11 18 -24 31 -31 29 -83 36 -123 15z"/>
<path d="M722 2189 c2 -6 8 -10 13 -10 5 0 11 4 13 10 2 6 -4 11 -13 11 -9 0
-15 -5 -13 -11z"/>
<path d="M2070 2185 c0 -8 5 -15 10 -15 6 0 10 7 10 15 0 8 -4 15 -10 15 -5 0
-10 -7 -10 -15z"/>
<path d="M570 2116 c0 -9 7 -16 16 -16 17 0 14 22 -4 28 -7 2 -12 -3 -12 -12z"/>
<path d="M2217 2124 c-8 -8 1 -24 14 -24 5 0 9 7 9 15 0 15 -12 20 -23 9z"/>
<path d="M420 1949 c-62 -26 -98 -91 -85 -157 l8 -37 10 30 c14 42 45 73 84
84 34 10 84 1 108 -19 9 -7 23 -6 49 5 31 13 34 18 25 33 -34 54 -140 86 -199
61z"/>
<path d="M2265 1946 c-16 -8 -42 -27 -58 -43 l-27 -29 36 -18 c32 -15 39 -15
59 -2 39 26 108 25 143 -2 13 -10 29 -36 37 -57 l13 -40 7 28 c30 117 -95 214
-210 163z"/>
<path d="M430 1853 c-33 -14 -58 -56 -91 -154 -20 -61 -21 -73 -10 -143 15
-104 3 -125 -133 -229 -24 -19 -36 -36 -36 -52 0 -36 -41 -59 -100 -56 -26 1
-51 -2 -55 -8 -3 -6 1 -11 9 -11 20 0 20 -16 1 -69 -13 -38 -6 -56 12 -28 5 7
10 -5 13 -33 l5 -45 17 30 17 30 1 -28 c0 -16 -5 -37 -11 -49 -13 -25 -5 -35
16 -18 8 7 15 9 15 6 0 -12 -32 -70 -48 -88 -14 -16 -13 -18 2 -18 10 0 34 16
53 35 20 20 38 34 40 31 3 -3 0 -26 -5 -53 -13 -58 -9 -65 13 -22 13 24 16 51
13 106 l-3 75 19 -24 19 -23 -8 25 c-4 14 -18 42 -31 62 -26 40 -32 60 -12 40
26 -26 29 -10 4 22 -21 29 -23 36 -11 46 11 9 17 6 30 -13 9 -14 32 -36 50
-49 45 -30 49 -43 29 -98 l-17 -46 57 -54 c31 -29 56 -61 56 -70 0 -10 7 -20
15 -24 8 -3 12 -12 9 -21 -4 -8 -1 -22 6 -30 24 -28 33 -16 28 37 -5 48 -10
57 -62 105 -31 29 -56 59 -56 68 0 20 7 19 40 -7 15 -13 51 -35 79 -50 35 -19
51 -34 51 -48 0 -11 5 -20 10 -20 6 0 10 -10 10 -23 0 -26 17 -47 38 -47 11 0
13 7 8 28 -4 15 -10 40 -13 55 -3 17 -16 33 -35 43 -16 8 -46 30 -66 48 -36
33 -37 36 -34 97 3 89 32 198 53 204 25 8 75 62 89 95 6 16 24 34 40 40 15 6
38 22 50 35 18 19 27 22 41 14 23 -12 14 -39 -12 -39 -14 0 -19 -7 -19 -29 0
-43 17 -47 50 -11 25 27 33 30 45 20 17 -14 20 -46 5 -55 -5 -3 -7 -12 -4 -19
3 -7 -2 -16 -10 -19 -13 -5 -14 -11 -4 -32 14 -30 38 -33 38 -5 0 12 7 35 16
51 14 29 14 32 -11 75 -14 24 -48 61 -75 81 l-49 36 32 16 c37 19 50 9 42 -30
-4 -17 0 -30 10 -39 13 -11 15 -5 15 53 l0 65 -77 -5 c-76 -6 -99 -12 -77 -20
6 -2 20 -11 30 -19 17 -13 16 -13 -11 0 -33 15 -108 99 -118 131 -4 11 -2 27
3 35 9 13 12 12 25 -4 8 -11 15 -29 15 -39 0 -15 3 -17 13 -8 10 7 17 7 24 0
17 -17 25 5 13 36 -20 54 -14 71 38 93 26 11 57 23 70 27 45 13 14 16 -52 4
-60 -11 -67 -11 -79 5 -13 18 -81 30 -107 19z m-80 -772 c-5 -11 -15 -23 -21
-27 -6 -3 -3 5 6 20 20 30 30 35 15 7z"/>
<path d="M2287 1840 c-26 -20 -32 -21 -91 -11 -89 16 -90 14 -11 -18 67 -27
70 -30 73 -64 2 -20 -1 -45 -7 -55 -13 -25 -4 -34 20 -21 14 7 19 6 20 -3 0
-7 6 3 13 22 15 42 40 46 44 8 3 -21 -8 -39 -45 -79 -26 -28 -61 -57 -78 -65
-27 -13 -28 -13 -11 0 10 8 24 17 30 19 23 9 -2 15 -74 18 l-75 4 -1 -71 c-1
-57 -6 -78 -24 -102 -17 -23 -21 -38 -16 -59 4 -15 10 -43 13 -60 6 -40 29
-43 46 -6 9 21 9 27 -1 31 -6 2 -12 12 -12 23 0 10 -4 19 -10 19 -14 0 -12 36
3 48 17 14 54 -2 62 -27 8 -27 35 -27 37 -1 0 11 1 25 2 30 1 6 -10 16 -23 23
-27 14 -32 31 -10 35 25 5 115 -60 135 -96 21 -38 78 -92 98 -92 9 0 15 -17
18 -48 3 -26 16 -74 31 -105 27 -60 28 -76 2 -29 -16 27 -16 26 -11 -26 5 -50
4 -54 -32 -87 -20 -19 -49 -40 -63 -47 -21 -9 -30 -24 -39 -65 -7 -29 -10 -56
-7 -59 11 -12 37 18 37 42 0 13 5 24 10 24 6 0 10 7 10 16 0 21 19 36 93 74
54 29 66 44 50 66 -5 5 3 -1 17 -13 l24 -23 -62 -63 c-53 -54 -63 -69 -68
-110 -7 -50 2 -60 31 -31 12 12 13 19 4 30 -9 11 -8 15 5 20 9 3 16 14 16 24
0 11 25 40 55 66 59 52 63 62 40 118 l-15 36 59 59 c41 40 63 55 70 48 7 -7 4
-18 -9 -35 -24 -30 -25 -43 -4 -35 15 6 15 4 1 -18 -9 -13 -23 -42 -32 -64
l-16 -40 19 24 20 24 -5 -69 c-5 -59 -2 -77 16 -110 l21 -39 -6 40 c-3 22 -8
48 -11 58 -6 25 0 22 40 -18 19 -19 43 -35 52 -35 14 0 14 3 -4 29 -11 15 -25
40 -31 55 -9 24 -8 26 9 16 29 -15 31 -13 15 18 -7 15 -14 38 -14 52 l1 25 17
-27 c23 -38 28 -35 23 14 -3 37 -1 41 11 30 13 -10 15 -3 14 54 l-1 65 -46 -2
c-53 -3 -83 14 -92 53 -5 17 -33 48 -77 83 -102 81 -104 85 -95 209 4 65 3
106 -3 110 -6 3 -16 29 -23 58 -6 29 -18 59 -26 66 -7 7 -13 20 -13 28 0 8 -4
13 -9 10 -5 -4 -11 -1 -13 5 -2 5 -21 13 -43 16 -31 4 -46 0 -68 -17z m-119
-297 c21 -8 20 -9 -13 -36 l-35 -28 0 47 c0 37 3 44 13 36 7 -6 23 -15 35 -19z"/>
<path d="M1808 618 c-27 -9 -39 -28 -18 -28 6 0 10 -25 10 -55 0 -54 0 -55
-28 -53 -45 3 -89 -20 -106 -57 -20 -41 -20 -58 -1 -95 17 -33 50 -45 101 -37
19 3 34 1 34 -4 0 -5 12 -7 28 -3 33 8 53 24 30 24 -24 0 -32 69 -25 206 3 63
5 114 4 113 -1 0 -14 -5 -29 -11z m-27 -158 c16 -9 19 -22 19 -75 0 -60 -2
-65 -24 -71 -72 -18 -116 97 -53 141 25 18 32 18 58 5z"/>
<path d="M703 598 c-6 -7 -34 -75 -63 -150 -30 -79 -59 -138 -66 -138 -7 0
-16 -4 -19 -10 -4 -6 14 -10 46 -10 47 0 51 2 35 13 -17 13 -18 17 -4 58 13
40 18 44 51 47 45 4 50 22 6 22 -23 0 -30 4 -26 14 3 8 11 32 18 55 7 23 15
41 19 41 3 0 23 -51 42 -112 29 -90 34 -114 22 -116 -8 -2 -14 -8 -14 -13 0
-5 26 -9 58 -9 56 0 57 1 34 18 -15 11 -38 62 -70 154 -26 75 -50 140 -53 143
-4 3 -11 0 -16 -7z"/>
<path d="M1160 562 c-47 -26 -71 -62 -77 -113 -8 -82 47 -147 134 -159 86 -11
132 8 133 54 0 17 -3 16 -23 -6 -46 -50 -114 -49 -162 2 -22 23 -29 41 -33 82
-5 67 9 103 50 128 49 30 93 26 130 -10 16 -16 31 -30 33 -30 1 0 -1 15 -4 33
l-7 32 -69 3 c-53 2 -78 -2 -105 -16z"/>
<path d="M922 485 c-14 -14 -19 -26 -13 -30 6 -3 11 -35 11 -70 0 -35 3 -70 6
-79 6 -16 48 -21 78 -10 25 10 19 20 -11 19 -28 0 -28 1 -31 73 l-3 72 31 0
c16 0 30 5 30 10 0 6 -13 10 -30 10 -20 0 -30 5 -30 15 0 20 -10 17 -38 -10z"/>
<path d="M1485 481 c-51 -15 -75 -48 -75 -106 0 -53 36 -85 95 -85 37 0 51 5
70 26 31 33 34 101 8 133 -21 24 -69 40 -98 32z m54 -37 c28 -35 28 -97 1
-124 -27 -27 -44 -25 -69 6 -28 35 -28 97 -1 124 27 27 44 25 69 -6z"/>
<path d="M1974 479 c-60 -22 -83 -112 -43 -163 16 -21 29 -26 63 -26 29 0 48
6 59 18 25 27 21 32 -13 16 -33 -17 -59 -9 -84 28 -33 46 -22 58 49 58 57 0
65 2 65 18 0 36 -56 66 -96 51z m40 -15 c33 -13 17 -34 -24 -34 -42 0 -52 12
-22 29 20 12 25 13 46 5z"/>
<path d="M2151 476 c-15 -8 -20 -16 -12 -20 6 -4 11 -35 11 -73 0 -51 -4 -69
-17 -79 -16 -12 -11 -13 37 -13 48 0 53 1 38 13 -14 10 -18 28 -18 80 l0 67
32 -3 c24 -2 33 1 36 15 4 20 -37 24 -56 5 -9 -9 -12 -8 -12 5 0 20 -7 21 -39
3z"/>
</g>
</svg>
